# xmcd CD database file
#
# Track frame offsets:
#	150
#	28187
#	48567
#	72733
#	96999
#	120216
#	136827
#	158712
#	182587
#	207142
#	241114
#	269881
#	294403
#
# Disc length: 4290 seconds
#
# Revision: 0
# Processed by: cddbd v1.5.2PL0 Copyright (c) Steve Scherf et al.
# Submitted via: CDex 1.51
#
DISCID=be10c00d
DTITLE=Salsa Loca - Watch Out
DYEAR=2007
DGENRE=Salsa
TTITLE0=Sonando
TTITLE1=Albondigas
TTITLE2=Mambo #5
TTITLE3=Claudia
TTITLE4=La Esencia Del Guaguanco
TTITLE5=Cha Cha #5
TTITLE6=Mama Guela
TTITLE7=Watch Out
TTITLE8=Come Candela
TTITLE9=Cinderalla
TTITLE10=(Se Acabo) La Malanga
TTITLE11=Bien Sabroso
TTITLE12=Yumbambe
EXTD=YEAR: 2007
EXTT0=
EXTT1=
EXTT2=
EXTT3=
EXTT4=
EXTT5=
EXTT6=
EXTT7=
EXTT8=
EXTT9=
EXTT10=
EXTT11=
EXTT12=
PLAYORDER=
